<svg width="304" height="304" viewBox="0 0 304 304" fill="none" xmlns="http://www.w3.org/2000/svg">
<path d="M6.52673 300.245C1.50855 296.297 -0.447632 57.8947 6.52673 53.0609C6.52673 45.6454 44.3726 7.27809 55.1863 3.62403C66 -0.0300355 298.484 3.62403 298.484 3.62403C304.732 23.289 301.309 239.822 298.484 250.808C292.016 262.069 262.672 290.248 249.825 300.245C249.825 300.245 11.5449 304.194 6.52673 300.245Z" fill="white"/>
<path d="M6.52673 53.0609C-0.447632 57.8947 1.50855 296.297 6.52673 300.245C11.5449 304.194 249.825 300.245 249.825 300.245M6.52673 53.0609C6.52673 45.6454 44.3726 7.27809 55.1863 3.62403C66 -0.0300356 298.484 3.62403 298.484 3.62403M6.52673 53.0609C18.1369 49.9848 243.598 49.4905 249.825 53.0609M249.825 300.245C262.672 290.248 292.016 262.069 298.484 250.808C301.309 239.822 304.732 23.289 298.484 3.62403M249.825 300.245C255.336 284.81 251.913 59.3778 249.825 53.0609M298.484 3.62403C288.104 14.8847 262.183 41.5806 249.825 53.0609" stroke="black" stroke-width="3"/>
<path d="M108.5 191C108.5 200.204 105.831 208.432 101.643 214.296C97.4518 220.164 91.8866 223.5 86 223.5C80.1134 223.5 74.5482 220.164 70.3567 214.296C66.1686 208.432 63.5 200.204 63.5 191C63.5 181.796 66.1686 173.568 70.3567 167.704C74.5482 161.836 80.1134 158.5 86 158.5C91.8866 158.5 97.4518 161.836 101.643 167.704C105.831 173.568 108.5 181.796 108.5 191Z" fill="white" stroke="black" stroke-width="5"/>
<line x1="55.9435" y1="168.091" x2="110.322" y2="142.734" stroke="black" stroke-width="5"/>
<path d="M132.878 191C132.878 200.204 135.547 208.432 139.735 214.296C143.927 220.164 149.492 223.5 155.378 223.5C161.265 223.5 166.83 220.164 171.022 214.296C175.21 208.432 177.878 200.204 177.878 191C177.878 181.796 175.21 173.568 171.022 167.704C166.83 161.836 161.265 158.5 155.378 158.5C149.492 158.5 143.927 161.836 139.735 167.704C135.547 173.568 132.878 181.796 132.878 191Z" fill="white" stroke="black" stroke-width="5"/>
<line y1="-2.5" x2="60" y2="-2.5" transform="matrix(-0.906308 -0.422618 -0.422618 0.906308 184.378 170.357)" stroke="black" stroke-width="5"/>
</svg>
